<svg xmlns="http://www.w3.org/2000/svg" width="800" height="1400" viewBox="0 0 800 1400">
  <defs>
    <radialGradient id="sky" cx="50%" cy="12%" r="90%">
      <stop offset="0%" stop-color="#2B342C"/>
      <stop offset="55%" stop-color="#1E2420"/>
      <stop offset="100%" stop-color="#12160F"/>
    </radialGradient>
  </defs>

  <rect width="800" height="1400" fill="url(#sky)"/>
  <path d="M 0,1400 L 0.0,980.0 L 3.5,976.7 L 7.0,973.4 L 10.5,970.3 L 14.0,967.3 L 17.5,964.3 L 21.0,961.5 L 24.5,958.8 L 28.0,956.2 L 31.5,953.8 L 35.0,951.4 L 38.5,949.1 L 42.0,946.9 L 45.5,944.9 L 49.0,942.9 L 52.5,941.1 L 56.0,939.4 L 59.5,937.7 L 63.0,936.2 L 66.5,934.8 L 70.0,933.5 L 73.5,932.3 L 77.0,931.2 L 80.5,930.2 L 84.0,929.4 L 87.5,928.6 L 91.0,927.9 L 94.5,927.4 L 98.0,926.9 L 101.5,926.6 L 105.0,926.4 L 108.5,926.3 L 112.0,926.2 L 115.5,926.3 L 119.0,926.5 L 122.5,926.8 L 126.0,927.3 L 129.5,927.8 L 133.0,928.4 L 136.5,929.2 L 140.0,930.0 L 140.0,930.0 L 144.5,929.1 L 149.0,928.4 L 153.5,927.7 L 158.0,927.1 L 162.5,926.5 L 167.0,926.1 L 171.5,925.7 L 176.0,925.4 L 180.5,925.2 L 185.0,925.1 L 189.5,925.1 L 194.0,925.1 L 198.5,925.3 L 203.0,925.5 L 207.5,925.8 L 212.0,926.2 L 216.5,926.6 L 221.0,927.2 L 225.5,927.8 L 230.0,928.5 L 234.5,929.3 L 239.0,930.2 L 243.5,931.1 L 248.0,932.2 L 252.5,933.3 L 257.0,934.5 L 261.5,935.8 L 266.0,937.1 L 270.5,938.6 L 275.0,940.1 L 279.5,941.7 L 284.0,943.4 L 288.5,945.2 L 293.0,947.1 L 297.5,949.0 L 302.0,951.1 L 306.5,953.2 L 311.0,955.4 L 315.5,957.6 L 320.0,960.0 L 320.0,960.0 L 324.5,956.2 L 329.0,952.4 L 333.5,948.8 L 338.0,945.4 L 342.5,942.0 L 347.0,938.8 L 351.5,935.6 L 356.0,932.6 L 360.5,929.8 L 365.0,927.0 L 369.5,924.4 L 374.0,921.8 L 378.5,919.4 L 383.0,917.2 L 387.5,915.0 L 392.0,913.0 L 396.5,911.0 L 401.0,909.2 L 405.5,907.6 L 410.0,906.0 L 414.5,904.6 L 419.0,903.2 L 423.5,902.0 L 428.0,901.0 L 432.5,900.0 L 437.0,899.2 L 441.5,898.4 L 446.0,897.8 L 450.5,897.4 L 455.0,897.0 L 459.5,896.8 L 464.0,896.6 L 468.5,896.6 L 473.0,896.8 L 477.5,897.0 L 482.0,897.4 L 486.5,897.8 L 491.0,898.4 L 495.5,899.2 L 500.0,900.0 L 500.0,900.0 L 504.5,899.2 L 509.0,898.4 L 513.5,897.8 L 518.0,897.3 L 522.5,896.8 L 527.0,896.5 L 531.5,896.3 L 536.0,896.2 L 540.5,896.3 L 545.0,896.4 L 549.5,896.6 L 554.0,896.9 L 558.5,897.4 L 563.0,897.9 L 567.5,898.6 L 572.0,899.4 L 576.5,900.2 L 581.0,901.2 L 585.5,902.3 L 590.0,903.5 L 594.5,904.8 L 599.0,906.2 L 603.5,907.7 L 608.0,909.4 L 612.5,911.1 L 617.0,912.9 L 621.5,914.9 L 626.0,916.9 L 630.5,919.1 L 635.0,921.4 L 639.5,923.8 L 644.0,926.2 L 648.5,928.8 L 653.0,931.5 L 657.5,934.3 L 662.0,937.3 L 666.5,940.3 L 671.0,943.4 L 675.5,946.7 L 680.0,950.0 L 680.0,950.0 L 683.0,947.6 L 686.0,945.4 L 689.0,943.2 L 692.0,941.1 L 695.0,939.0 L 698.0,937.1 L 701.0,935.2 L 704.0,933.4 L 707.0,931.7 L 710.0,930.1 L 713.0,928.6 L 716.0,927.1 L 719.0,925.8 L 722.0,924.5 L 725.0,923.3 L 728.0,922.2 L 731.0,921.1 L 734.0,920.2 L 737.0,919.3 L 740.0,918.5 L 743.0,917.8 L 746.0,917.2 L 749.0,916.6 L 752.0,916.2 L 755.0,915.8 L 758.0,915.5 L 761.0,915.3 L 764.0,915.1 L 767.0,915.1 L 770.0,915.1 L 773.0,915.2 L 776.0,915.4 L 779.0,915.7 L 782.0,916.1 L 785.0,916.5 L 788.0,917.1 L 791.0,917.7 L 794.0,918.4 L 797.0,919.1 L 800.0,920.0 L 800,1400 Z" fill="#232C25" opacity="0.55"/>
  <path d="M -20,1060 C 150,1020 220,1090 380,1050 C 520,1015 600,1075 830,1030" fill="none" stroke="#3E5560" stroke-width="7" opacity="0.35" stroke-linecap="round"/>
  <path d="M -20,1080 C 150,1040 220,1110 380,1070 C 520,1035 600,1095 830,1050" fill="none" stroke="#3E5560" stroke-width="4" opacity="0.25" stroke-linecap="round"/>
  <path d="M 0,1400 L 0.0,1080.0 L 4.5,1075.7 L 9.0,1071.5 L 13.5,1067.4 L 18.0,1063.5 L 22.5,1059.7 L 27.0,1056.0 L 31.5,1052.4 L 36.0,1049.0 L 40.5,1045.8 L 45.0,1042.6 L 49.5,1039.6 L 54.0,1036.7 L 58.5,1034.0 L 63.0,1031.4 L 67.5,1028.9 L 72.0,1026.6 L 76.5,1024.3 L 81.0,1022.3 L 85.5,1020.3 L 90.0,1018.5 L 94.5,1016.8 L 99.0,1015.3 L 103.5,1013.8 L 108.0,1012.6 L 112.5,1011.4 L 117.0,1010.4 L 121.5,1009.5 L 126.0,1008.7 L 130.5,1008.1 L 135.0,1007.6 L 139.5,1007.3 L 144.0,1007.0 L 148.5,1006.9 L 153.0,1007.0 L 157.5,1007.2 L 162.0,1007.5 L 166.5,1007.9 L 171.0,1008.5 L 175.5,1009.2 L 180.0,1010.0 L 180.0,1010.0 L 185.0,1009.2 L 190.0,1008.4 L 195.0,1007.8 L 200.0,1007.3 L 205.0,1006.8 L 210.0,1006.5 L 215.0,1006.3 L 220.0,1006.2 L 225.0,1006.3 L 230.0,1006.4 L 235.0,1006.6 L 240.0,1006.9 L 245.0,1007.4 L 250.0,1007.9 L 255.0,1008.6 L 260.0,1009.4 L 265.0,1010.2 L 270.0,1011.2 L 275.0,1012.3 L 280.0,1013.5 L 285.0,1014.8 L 290.0,1016.2 L 295.0,1017.7 L 300.0,1019.4 L 305.0,1021.1 L 310.0,1022.9 L 315.0,1024.9 L 320.0,1026.9 L 325.0,1029.1 L 330.0,1031.4 L 335.0,1033.8 L 340.0,1036.2 L 345.0,1038.8 L 350.0,1041.5 L 355.0,1044.3 L 360.0,1047.3 L 365.0,1050.3 L 370.0,1053.4 L 375.0,1056.7 L 380.0,1060.0 L 380.0,1060.0 L 384.5,1055.7 L 389.0,1051.5 L 393.5,1047.4 L 398.0,1043.5 L 402.5,1039.7 L 407.0,1036.0 L 411.5,1032.4 L 416.0,1029.0 L 420.5,1025.8 L 425.0,1022.6 L 429.5,1019.6 L 434.0,1016.7 L 438.5,1014.0 L 443.0,1011.4 L 447.5,1008.9 L 452.0,1006.6 L 456.5,1004.3 L 461.0,1002.3 L 465.5,1000.3 L 470.0,998.5 L 474.5,996.8 L 479.0,995.3 L 483.5,993.8 L 488.0,992.6 L 492.5,991.4 L 497.0,990.4 L 501.5,989.5 L 506.0,988.7 L 510.5,988.1 L 515.0,987.6 L 519.5,987.3 L 524.0,987.0 L 528.5,986.9 L 533.0,987.0 L 537.5,987.2 L 542.0,987.5 L 546.5,987.9 L 551.0,988.5 L 555.5,989.2 L 560.0,990.0 L 560.0,990.0 L 566.0,989.2 L 572.0,988.4 L 578.0,987.8 L 584.0,987.3 L 590.0,986.8 L 596.0,986.5 L 602.0,986.3 L 608.0,986.2 L 614.0,986.3 L 620.0,986.4 L 626.0,986.6 L 632.0,986.9 L 638.0,987.4 L 644.0,987.9 L 650.0,988.6 L 656.0,989.4 L 662.0,990.2 L 668.0,991.2 L 674.0,992.3 L 680.0,993.5 L 686.0,994.8 L 692.0,996.2 L 698.0,997.7 L 704.0,999.4 L 710.0,1001.1 L 716.0,1002.9 L 722.0,1004.9 L 728.0,1006.9 L 734.0,1009.1 L 740.0,1011.4 L 746.0,1013.8 L 752.0,1016.2 L 758.0,1018.8 L 764.0,1021.5 L 770.0,1024.3 L 776.0,1027.3 L 782.0,1030.3 L 788.0,1033.4 L 794.0,1036.7 L 800.0,1040.0 L 800,1400 Z" fill="#1C2420" opacity="0.8"/>
  <g transform="translate(260.0,1009.4)">
      <ellipse cx="0" cy="0" rx="9.0" ry="6.0" fill="#2E372F"/>
      <circle cx="-9.0" cy="1.0" r="3.6" fill="#2E372F"/>
    </g><g transform="translate(290.0,1016.2)">
      <ellipse cx="0" cy="0" rx="8.1" ry="5.4" fill="#2E372F"/>
      <circle cx="-8.1" cy="0.9" r="3.24" fill="#2E372F"/>
    </g><g transform="translate(230.0,1006.4)">
      <ellipse cx="0" cy="0" rx="7.2" ry="4.800000000000001" fill="#2E372F"/>
      <circle cx="-7.2" cy="0.8" r="2.8800000000000003" fill="#2E372F"/>
    </g>
  <path d="M 0,1400 L 0.0,1310.0 L 3.5,1307.3 L 7.0,1304.7 L 10.5,1302.1 L 14.0,1299.7 L 17.5,1297.3 L 21.0,1295.0 L 24.5,1292.7 L 28.0,1290.6 L 31.5,1288.5 L 35.0,1286.6 L 38.5,1284.7 L 42.0,1282.8 L 45.5,1281.1 L 49.0,1279.5 L 52.5,1277.9 L 56.0,1276.4 L 59.5,1275.0 L 63.0,1273.7 L 66.5,1272.4 L 70.0,1271.2 L 73.5,1270.2 L 77.0,1269.2 L 80.5,1268.2 L 84.0,1267.4 L 87.5,1266.6 L 91.0,1266.0 L 94.5,1265.4 L 98.0,1264.8 L 101.5,1264.4 L 105.0,1264.1 L 108.5,1263.8 L 112.0,1263.6 L 115.5,1263.5 L 119.0,1263.5 L 122.5,1263.5 L 126.0,1263.7 L 129.5,1263.9 L 133.0,1264.2 L 136.5,1264.5 L 140.0,1265.0 L 140.0,1265.0 L 144.0,1264.5 L 148.0,1264.1 L 152.0,1263.8 L 156.0,1263.5 L 160.0,1263.2 L 164.0,1263.0 L 168.0,1262.9 L 172.0,1262.8 L 176.0,1262.8 L 180.0,1262.8 L 184.0,1262.9 L 188.0,1263.0 L 192.0,1263.3 L 196.0,1263.5 L 200.0,1263.8 L 204.0,1264.2 L 208.0,1264.6 L 212.0,1265.1 L 216.0,1265.7 L 220.0,1266.2 L 224.0,1266.9 L 228.0,1267.6 L 232.0,1268.4 L 236.0,1269.2 L 240.0,1270.1 L 244.0,1271.0 L 248.0,1272.0 L 252.0,1273.0 L 256.0,1274.2 L 260.0,1275.3 L 264.0,1276.5 L 268.0,1277.8 L 272.0,1279.1 L 276.0,1280.5 L 280.0,1282.0 L 284.0,1283.5 L 288.0,1285.0 L 292.0,1286.6 L 296.0,1288.3 L 300.0,1290.0 L 300.0,1290.0 L 303.0,1285.8 L 306.0,1281.7 L 309.0,1277.8 L 312.0,1274.0 L 315.0,1270.2 L 318.0,1266.6 L 321.0,1263.2 L 324.0,1259.8 L 327.0,1256.6 L 330.0,1253.4 L 333.0,1250.4 L 336.0,1247.5 L 339.0,1244.8 L 342.0,1242.1 L 345.0,1239.6 L 348.0,1237.2 L 351.0,1234.9 L 354.0,1232.7 L 357.0,1230.7 L 360.0,1228.8 L 363.0,1226.9 L 366.0,1225.2 L 369.0,1223.7 L 372.0,1222.2 L 375.0,1220.9 L 378.0,1219.6 L 381.0,1218.5 L 384.0,1217.5 L 387.0,1216.7 L 390.0,1215.9 L 393.0,1215.3 L 396.0,1214.8 L 399.0,1214.4 L 402.0,1214.1 L 405.0,1214.0 L 408.0,1214.0 L 411.0,1214.0 L 414.0,1214.2 L 417.0,1214.6 L 420.0,1215.0 L 420.0,1215.0 L 423.0,1214.6 L 426.0,1214.2 L 429.0,1214.0 L 432.0,1213.9 L 435.0,1213.9 L 438.0,1214.0 L 441.0,1214.3 L 444.0,1214.6 L 447.0,1215.1 L 450.0,1215.6 L 453.0,1216.3 L 456.0,1217.1 L 459.0,1218.0 L 462.0,1219.0 L 465.0,1220.2 L 468.0,1221.4 L 471.0,1222.8 L 474.0,1224.2 L 477.0,1225.8 L 480.0,1227.5 L 483.0,1229.3 L 486.0,1231.2 L 489.0,1233.3 L 492.0,1235.4 L 495.0,1237.7 L 498.0,1240.0 L 501.0,1242.5 L 504.0,1245.1 L 507.0,1247.8 L 510.0,1250.6 L 513.0,1253.6 L 516.0,1256.6 L 519.0,1259.8 L 522.0,1263.0 L 525.0,1266.4 L 528.0,1269.9 L 531.0,1273.5 L 534.0,1277.2 L 537.0,1281.1 L 540.0,1285.0 L 540.0,1285.0 L 543.5,1282.8 L 547.0,1280.6 L 550.5,1278.6 L 554.0,1276.6 L 557.5,1274.6 L 561.0,1272.7 L 564.5,1270.9 L 568.0,1269.2 L 571.5,1267.5 L 575.0,1265.9 L 578.5,1264.4 L 582.0,1262.9 L 585.5,1261.6 L 589.0,1260.2 L 592.5,1259.0 L 596.0,1257.8 L 599.5,1256.7 L 603.0,1255.6 L 606.5,1254.7 L 610.0,1253.8 L 613.5,1252.9 L 617.0,1252.1 L 620.5,1251.4 L 624.0,1250.8 L 627.5,1250.2 L 631.0,1249.7 L 634.5,1249.3 L 638.0,1248.9 L 641.5,1248.7 L 645.0,1248.4 L 648.5,1248.3 L 652.0,1248.2 L 655.5,1248.2 L 659.0,1248.2 L 662.5,1248.4 L 666.0,1248.6 L 669.5,1248.8 L 673.0,1249.1 L 676.5,1249.5 L 680.0,1250.0 L 680.0,1250.0 L 683.0,1249.5 L 686.0,1249.2 L 689.0,1248.9 L 692.0,1248.7 L 695.0,1248.6 L 698.0,1248.6 L 701.0,1248.6 L 704.0,1248.8 L 707.0,1249.0 L 710.0,1249.4 L 713.0,1249.8 L 716.0,1250.3 L 719.0,1250.9 L 722.0,1251.6 L 725.0,1252.3 L 728.0,1253.2 L 731.0,1254.1 L 734.0,1255.2 L 737.0,1256.3 L 740.0,1257.5 L 743.0,1258.8 L 746.0,1260.2 L 749.0,1261.6 L 752.0,1263.2 L 755.0,1264.8 L 758.0,1266.6 L 761.0,1268.4 L 764.0,1270.3 L 767.0,1272.3 L 770.0,1274.4 L 773.0,1276.5 L 776.0,1278.8 L 779.0,1281.1 L 782.0,1283.6 L 785.0,1286.1 L 788.0,1288.7 L 791.0,1291.4 L 794.0,1294.2 L 797.0,1297.0 L 800.0,1300.0 L 800,1400 Z" fill="#141A16"/>
  <g transform="translate(148.0,1264.1)"><g transform="translate(-20.9,0.0)">
      <rect x="-6.84" y="-10.26" width="13.68" height="10.26" fill="#1B231D"/>
      <path d="M -8.84,-10.26 L 0,-18.810000000000002 L 8.84,-10.26 Z" fill="#1B231D"/>
    </g><g transform="translate(-5.7,0.0)">
      <rect x="-7.9799999999999995" y="-11.969999999999999" width="15.959999999999999" height="11.969999999999999" fill="#1B231D"/>
      <path d="M -9.98,-11.969999999999999 L 0,-21.945 L 9.98,-11.969999999999999 Z" fill="#1B231D"/>
    </g><g transform="translate(13.3,0.0)">
      <rect x="-4.2749999999999995" y="-28.5" width="8.549999999999999" height="28.5" fill="#1B231D"/>
      <path d="M -5.7749999999999995,-28.5 L 0,-41.8 L 5.7749999999999995,-28.5 Z" fill="#1B231D"/>
      <rect x="-1.52" y="-17.669999999999998" width="3.04" height="4.75" fill="#2B342C"/>
    </g><g transform="translate(28.5,0.0)">
      <rect x="-6.46" y="-9.69" width="12.92" height="9.69" fill="#1B231D"/>
      <path d="M -8.46,-9.69 L 0,-17.765 L 8.46,-9.69 Z" fill="#1B231D"/>
    </g></g><g transform="translate(689.0,1248.9)"><g transform="translate(-20.9,0.0)">
      <rect x="-6.84" y="-10.26" width="13.68" height="10.26" fill="#1B231D"/>
      <path d="M -8.84,-10.26 L 0,-18.810000000000002 L 8.84,-10.26 Z" fill="#1B231D"/>
    </g><g transform="translate(-5.7,0.0)">
      <rect x="-7.9799999999999995" y="-11.969999999999999" width="15.959999999999999" height="11.969999999999999" fill="#1B231D"/>
      <path d="M -9.98,-11.969999999999999 L 0,-21.945 L 9.98,-11.969999999999999 Z" fill="#1B231D"/>
    </g><g transform="translate(13.3,0.0)">
      <rect x="-4.2749999999999995" y="-28.5" width="8.549999999999999" height="28.5" fill="#1B231D"/>
      <path d="M -5.7749999999999995,-28.5 L 0,-41.8 L 5.7749999999999995,-28.5 Z" fill="#1B231D"/>
      <rect x="-1.52" y="-17.669999999999998" width="3.04" height="4.75" fill="#2B342C"/>
    </g><g transform="translate(28.5,0.0)">
      <rect x="-6.46" y="-9.69" width="12.92" height="9.69" fill="#1B231D"/>
      <path d="M -8.46,-9.69 L 0,-17.765 L 8.46,-9.69 Z" fill="#1B231D"/>
    </g></g>
  <g transform="translate(420.0,1215.0)"><path d="M -25.3,0 L -21.252,-143.0 L 21.252,-143.0 L 25.3,0 Z" fill="#242D24"/><rect x="-22.264" y="-147.4" width="44.528" height="11.0" fill="#20281F"/><rect x="-22.6" y="-158.4" width="7.2" height="17.6" fill="#20281F"/><rect x="-9.9" y="-158.4" width="7.2" height="17.6" fill="#20281F"/><rect x="2.7" y="-158.4" width="7.2" height="17.6" fill="#20281F"/><rect x="15.4" y="-158.4" width="7.2" height="17.6" fill="#20281F"/><rect x="-2.4200000000000004" y="-102.96" width="4.840000000000001" height="22.0" fill="#12160F"/><rect x="-2.2" y="-54.34" width="4.4" height="17.6" fill="#12160F"/><line x1="0" y1="-158.4" x2="0" y2="-180.4" stroke="#20281F" stroke-width="1.7600000000000002"/><path d="M 0,-180.4 L 11.0,-174.9 L 0,-169.4 Z" fill="#5E6E48"/></g>
  <g transform="translate(38.5,1284.7)">
      <rect x="-2.2" y="-15.400000000000002" width="4.4" height="15.400000000000002" fill="#1E2620"/>
      <ellipse cx="0" cy="-22.0" rx="12.100000000000001" ry="17.6" fill="#1E2620"/>
      <ellipse cx="0" cy="-33.0" rx="8.8" ry="13.200000000000001" fill="#1E2620"/>
    </g><g transform="translate(260.0,1275.3)">
      <rect x="-1.7" y="-11.9" width="3.4" height="11.9" fill="#1E2620"/>
      <ellipse cx="0" cy="-17.0" rx="9.35" ry="13.6" fill="#1E2620"/>
      <ellipse cx="0" cy="-25.5" rx="6.8" ry="10.2" fill="#1E2620"/>
    </g><g transform="translate(571.5,1267.5)">
      <rect x="-1.8" y="-12.6" width="3.6" height="12.6" fill="#1E2620"/>
      <ellipse cx="0" cy="-18.0" rx="9.9" ry="14.4" fill="#1E2620"/>
      <ellipse cx="0" cy="-27.0" rx="7.2" ry="10.8" fill="#1E2620"/>
    </g><g transform="translate(770.0,1274.4)">
      <rect x="-2.1" y="-14.700000000000001" width="4.2" height="14.700000000000001" fill="#1E2620"/>
      <ellipse cx="0" cy="-21.0" rx="11.55" ry="16.8" fill="#1E2620"/>
      <ellipse cx="0" cy="-31.5" rx="8.4" ry="12.600000000000001" fill="#1E2620"/>
    </g>
</svg>